<?xml version="1.0" encoding="UTF-8"?>
<svg id="Calque_1" data-name="Calque 1" xmlns="http://www.w3.org/2000/svg" viewBox="0 0 500 500" >
  <defs>
    <style>
      .cls-1 {
        fill: #4c96c5;
      }

      .cls-2 {
        fill: #5d296b;
      }
    </style>
  </defs>
  <path class="cls-1" d="M107.37,196.09v76.95c0,9.52-2.89,17.05-8.68,22.58-5.79,5.53-13.39,8.29-22.81,8.29s-17.02-2.76-22.81-8.29c-5.79-5.53-8.68-13.06-8.68-22.58h17.66c.1,4.71,1.31,8.45,3.61,11.21s5.71,4.15,10.21,4.15,7.93-1.41,10.29-4.22c2.35-2.82,3.53-6.53,3.53-11.14v-60.32c0-9.18,7.45-16.63,16.63-16.63h1.03Z"/>
  <path class="cls-2" d="M173.85,196.78c-29.58,0-53.56,23.98-53.56,53.56s23.98,53.56,53.56,53.56,53.56-23.98,53.56-53.56-23.98-53.56-53.56-53.56Zm-.05,88.51c-18.86,0-34.14-15.29-34.14-34.14s15.29-34.14,34.14-34.14,34.14,15.29,34.14,34.14-15.29,34.14-34.14,34.14Z"/>
  <g>
    <path class="cls-2" d="M258.76,223.47c-2.24,0-3.97-.63-5.19-1.88-1.22-1.25-1.83-3-1.83-5.26h2.99c0,1.44,.36,2.56,1.07,3.35,.71,.8,1.72,1.19,3.03,1.19s2.24-.4,2.93-1.19,1.03-1.91,1.03-3.36v-13.57h2.99v13.57c0,2.26-.62,4.02-1.85,5.26-1.24,1.25-2.96,1.87-5.16,1.87Zm-1.21-17.98v-2.73h6.7v2.73h-6.7Z"/>
    <path class="cls-2" d="M274.91,223.47c-5.02,0-7.54-3.45-7.54-10.35s2.51-10.64,7.54-10.64,7.54,3.55,7.54,10.64-2.51,10.35-7.54,10.35Zm0-2.65c2.97,0,4.46-2.57,4.46-7.71s-1.49-8-4.46-8-4.46,2.67-4.46,8,1.49,7.71,4.46,7.71Z"/>
    <path class="cls-2" d="M290.64,223.47c-4.37,0-6.56-2.28-6.56-6.85v-13.86h2.99v13.86c0,1.36,.29,2.39,.88,3.08,.58,.69,1.5,1.04,2.75,1.04,2.42,0,3.62-1.37,3.62-4.11v-13.86h2.99v13.86c0,2.28-.57,3.99-1.7,5.13-1.13,1.14-2.79,1.71-4.98,1.71Z"/>
    <path class="cls-2" d="M299.87,223.18v-20.42h2.99v20.42h-2.99Zm2.79-7.77v-2.73h4.23c1.14,0,2.03-.3,2.67-.91,.64-.6,.96-1.45,.96-2.54,0-1.2-.32-2.12-.96-2.77-.64-.65-1.53-.97-2.67-.97h-4.17l-.34-2.73h4.52c2.12,0,3.76,.54,4.91,1.61,1.15,1.07,1.73,2.6,1.73,4.57s-.58,3.64-1.73,4.77c-1.16,1.13-2.79,1.7-4.91,1.7h-4.23Zm8.17,7.77l-4.57-9.61h3.16l4.86,9.61h-3.45Z"/>
    <path class="cls-2" d="M315.77,223.18v-20.42h2.99v20.42h-2.99Zm9.15,0l-5.87-15.53h-1.32v-4.89h1.9l5.87,15.53h.72v4.89h-1.29Zm.86,0v-20.42h2.99v20.42h-2.99Z"/>
    <path class="cls-2" d="M331.72,223.18v-20.42h2.99v20.42h-2.99Zm0-17.69v-2.73h13.52v2.73h-13.52Zm0,8.83v-2.73h10.93v2.73h-10.93Zm0,8.86v-2.73h13.52v2.73h-13.52Z"/>
    <path class="cls-2" d="M347.51,223.18v-20.42h2.99v20.42h-2.99Zm0-17.69v-2.73h13.52v2.73h-13.52Zm0,8.83v-2.73h10.93v2.73h-10.93Zm0,8.86v-2.73h13.52v2.73h-13.52Z"/>
    <path class="cls-2" d="M252.52,258.52v-20.42h2.99v20.42h-2.99Zm2.79,0v-2.73h2.16c2.1,0,3.68-.6,4.74-1.8,1.06-1.2,1.59-3,1.59-5.39,0-2.6-.53-4.54-1.59-5.83s-2.64-1.93-4.74-1.93h-2.1l-.34-2.73h2.44c6.23,0,9.35,3.5,9.35,10.5,0,6.61-3.12,9.92-9.35,9.92h-2.16Z"/>
    <path class="cls-2" d="M274.47,248.88l-2.16-1.9,.86-.93c.56-.59,.97-1.2,1.25-1.81,.28-.61,.42-1.21,.42-1.8s-.17-.98-.52-1.26-.87-.42-1.55-.42h-.65v-2.66h1.08c1.51,0,2.66,.37,3.43,1.1,.77,.73,1.16,1.81,1.16,3.24,0,.87-.21,1.79-.62,2.74-.41,.95-1.04,1.9-1.9,2.83l-.81,.88Z"/>
    <path class="cls-2" d="M290.7,258.81c-5.02,0-7.54-3.45-7.54-10.35s2.51-10.64,7.54-10.64,7.54,3.55,7.54,10.64-2.51,10.35-7.54,10.35Zm0-2.65c2.97,0,4.46-2.57,4.46-7.71s-1.49-8-4.46-8-4.46,2.67-4.46,8,1.49,7.71,4.46,7.71Z"/>
    <path class="cls-2" d="M299.87,258.52v-20.42h2.99v20.42h-2.99Zm2.79-7.77v-2.73h4.23c1.14,0,2.03-.3,2.67-.91,.64-.6,.96-1.45,.96-2.54,0-1.2-.32-2.12-.96-2.77-.64-.65-1.53-.97-2.67-.97h-4.17l-.34-2.73h4.52c2.12,0,3.76,.54,4.91,1.61,1.15,1.07,1.73,2.6,1.73,4.57s-.58,3.64-1.73,4.77c-1.16,1.13-2.79,1.7-4.91,1.7h-4.23Zm8.17,7.77l-4.57-9.61h3.16l4.86,9.61h-3.45Z"/>
    <path class="cls-2" d="M316.05,240.83v-2.73h12.42v2.73h-12.42Zm0,17.69v-2.73h12.42v2.73h-12.42Zm4.7,0v-20.42h2.99v20.42h-2.99Z"/>
    <path class="cls-2" d="M331.72,258.52v-20.42h2.99v20.42h-2.99Zm0-17.69v-2.73h13.52v2.73h-13.52Zm0,8.83v-2.73h10.93v2.73h-10.93Zm0,8.86v-2.73h13.52v2.73h-13.52Z"/>
    <path class="cls-2" d="M347.33,258.52v-20.42h2.99v20.42h-2.99Zm9.15,0l-5.87-15.53h-1.32v-4.89h1.9l5.87,15.53h.72v4.89h-1.29Zm.86,0v-20.42h2.99v20.42h-2.99Z"/>
    <path class="cls-2" d="M362.14,240.83v-2.73h14.96v2.73h-14.96Zm5.98,17.69v-20.42h2.99v20.42h-2.99Z"/>
    <path class="cls-2" d="M377.42,258.52l5.9-20.42h4.17l5.9,20.42h-3.02l-4.83-17.95h-.26l-4.83,17.95h-3.02Zm2.73-4.98v-2.73h10.35v2.73h-10.35Z"/>
    <path class="cls-2" d="M393.71,240.83v-2.73h14.96v2.73h-14.96Zm5.98,17.69v-20.42h2.99v20.42h-2.99Z"/>
    <path class="cls-2" d="M410.76,240.83v-2.73h12.42v2.73h-12.42Zm0,17.69v-2.73h12.42v2.73h-12.42Zm4.7,0v-20.42h2.99v20.42h-2.99Z"/>
    <path class="cls-2" d="M432.75,258.81c-5.02,0-7.54-3.45-7.54-10.35s2.51-10.64,7.54-10.64,7.54,3.55,7.54,10.64-2.51,10.35-7.54,10.35Zm0-2.65c2.97,0,4.46-2.57,4.46-7.71s-1.49-8-4.46-8-4.46,2.67-4.46,8,1.49,7.71,4.46,7.71Z"/>
    <path class="cls-2" d="M442.04,258.52v-20.42h2.99v20.42h-2.99Zm9.15,0l-5.87-15.53h-1.32v-4.89h1.9l5.87,15.53h.72v4.89h-1.29Zm.86,0v-20.42h2.99v20.42h-2.99Z"/>
  </g>
</svg>